<?xml version="1.0" standalone="no"?><!DOCTYPE svg PUBLIC "-//W3C//DTD SVG 1.1//EN"
        "http://www.w3.org/Graphics/SVG/1.1/DTD/svg11.dtd">
<svg width="16" height="16" viewBox="0 0 16 16" version="1.1" xmlns="http://www.w3.org/2000/svg"
     xmlns:xlink="http://www.w3.org/1999/xlink">
    <defs>
        <style type="text/css"><![CDATA[
@font-face { font-family: ifont; src: url("http://at.alicdn.com/t/font_1442373896_4754455.eot?#iefix") format("embedded-opentype"), url("http://at.alicdn.com/t/font_1442373896_4754455.woff") format("woff"), url("http://at.alicdn.com/t/font_1442373896_4754455.ttf") format("truetype"), url("http://at.alicdn.com/t/font_1442373896_4754455.svg#ifont") format("svg"); }

]]></style>
    </defs>
    <g class="transform-group">
        <g transform="scale(0.015625, 0.015625)">
            <path d="M74.903 252.397c48.317-0.033 68.926 19.231 101.11 32.048 49.956 19.893 104.723 31.452 160.427 45.511 46.525 11.743 84.347 14.222 145.635 17.067 26.545 0.379 63.22-3.525 97.242-5.12 63.47-10.254 138.97-6.737 199.49 4.551 57.603 10.745 99.698 37.478 137.9 67.698 39.94 31.595 68.342 81.031 80.782 139.947 20.415 96.692-59.123 219.020-126.293 228.693 12.135-16.686 24.273-33.377 36.409-50.062 21.209-33.894 35.642-73.028 45.511-118.329 11.822-54.267-9.37-95.739-28.445-126.293-52.385-83.914-142.070-117.381-282.059-108.739-26.166 0.758-67.243 7.856-93.408 8.615-124.625 10.809-253.734-15.644-347.022-47.787-25.673-8.846-106.042-52.907-96.514-3.802 21.619 29.155 62.842 88.864 110.167 109.615 16.175 7.092 64.625 4.362 60.832 24.842 3.035 41.15-148.517 21.429-147.152 53.097 0 4.551 0 8.343 4.4 11.947 20.199 28.058 112.742 44.223 167.253 35.271 14.619-2.401 36.69-14.352 48.925-10.24 1.581 0.948 4.703 0.948 6.598 5.12 0 0 3.035 5.689 1.366 10.809-13.718 28.164-40.25 39.456-58.027 62.578 0.387 7.371 1.588 8.98 6.827 11.378 25.188 12.389 133.046-15.5 155.875-21.618 8.016-2.148 37.2-13.806 43.387 3.982 9.102 26.169-51.225 57.775-46.8 87.040 66.629 31.2 199.642-84.765 226.189-36.219 11.378 15.929-30.96 34.804-39.594 58.975 0.379 0 0.758 0 1.138 0 27.645-6.916 53.038-5.702 76.231-14.791 64.083-25.113 154.998-116.973 88.747-200.249-36.171-45.467-142.814-47.959-163.84 12.515-13.115 37.723 76.969 72.31 77.369 25.031-0.379-1.138-0.758-2.275-1.138-3.413-8.885-11.776-22.293-6.547-36.409-7.965-4.749-6.019-8.629-7.283-9.102-18.205 36.93-58.982 132.021 27.267 67.129 75.093-53.916 39.735-156.788-4.97-138.809-79.645 33.546-139.328 311.662-79.821 285.582 71.68-14.947 86.823-83.145 152.973-162.702 175.218-39.254 10.976-156.464 9.68-154.738-30.72-50.493 16.967-181.893 27.497-199.111 2.275-13.123-14.981 11.824-35.924 23.893-51.2 0-0.379 0-0.758 0-1.138-54.021 6.838-196.537 10.278-213.902-30.72-5.158-22.945 51.783-23.623 65.991-45.511-68.755-7.659-122.545-29.826-164.978-63.715-16.203-12.941-64.726-63.774-26.169-84.195 1.668-3.982 43.997-4.551 65.991-6.827 0.379-0.758 0.758-1.517 1.138-2.275-10.997-13.273-21.998-26.55-32.995-39.822-19.603-26.709-35.515-56.005-51.2-86.471-11.308-21.962-23.303-48.037-4.551-71.68 8.169-10.297 18.736-13.843 35.423-13.843z"
                  fill="#00bb9c"></path>
        </g>
    </g>
</svg>